<svg width="1316" height="996" viewBox="0 0 1316 996" fill="none" xmlns="http://www.w3.org/2000/svg">
<path d="M16 16L1316 16L997.5 993H16V16Z" fill="#4B4AEF"/>
<path d="M342.481 756.721C210.704 701.444 47.0954 722.429 -18.2369 739.831C-20.322 821.722 -23.2411 986.732 -18.2369 991.646C-13.2328 996.559 772.006 993.693 1164 991.646V911.802C1080.6 862.667 1001.36 821.21 757.411 842.706C571.072 859.126 507.202 825.816 342.481 756.721Z" fill="white" fill-opacity="0.04"/>
<path d="M180.717 200.628C-68.3777 189.022 -119.029 334.672 -199.663 301.033C-203.295 140.237 -248.478 -176.064 -242.383 -185.754C-236.288 -195.444 631.569 -176.944 1114.04 -176.124L1115.08 -19.3315C1013.07 77.837 1094.44 103.301 724.035 98.4648C462.355 95.0482 459.54 213.62 180.717 200.628Z" fill="white" fill-opacity="0.04"/>
<path d="M9.71699 137.628C-239.378 126.022 -290.029 271.672 -370.663 238.033C-374.295 77.2372 -419.478 -239.064 -413.383 -248.754C-407.288 -258.444 460.569 -239.944 943.037 -239.124L944.077 -82.3315C842.07 14.837 923.445 40.3011 553.035 35.4648C291.355 32.0482 288.54 150.62 9.71699 137.628Z" fill="white" fill-opacity="0.04"/>
<path d="M224.481 685.65C92.7042 613.461 -70.9046 640.866 -136.237 663.593C-138.322 770.54 -141.241 986.04 -136.237 992.457C-131.233 998.874 654.006 995.131 1046 992.457V888.183C962.597 824.014 883.364 769.872 639.411 797.946C453.072 819.389 389.202 775.888 224.481 685.65Z" fill="white" fill-opacity="0.04"/>
</svg>
